<svg width="700" height="500" viewBox="0 0 788 580" fill="none" xmlns="http://www.w3.org/2000/svg"> <g clip-path="url(#clip0_14_344)">
<path
d="M291.506 154.374C325.448 132.966 372.196 141.284 405.266 163.967C416.057 171.471 425.969 180.115 434.822 189.742C439.985 195.276 444.879 201.086 449.56 207.096C450.714 208.57 451.861 210.06 452.987 211.563C453.757 212.58 454.521 213.604 455.279 214.635C464.773 227.533 473.477 241.101 481.997 254.547C503.269 288.11 525.094 322.673 557.504 346.238C564.182 351.092 573.497 355.463 580.339 350.828C586.275 346.803 586.53 338.34 585.178 331.404C580.156 305.707 562.037 284.412 542.788 266.233C523.54 248.055 502.231 231.389 487.687 209.423C473.143 187.457 466.498 158.132 479.237 135.126C490.216 115.301 513.838 104.181 536.895 103.663C559.949 103.15 582.349 111.909 601.855 123.936C621.359 135.968 638.51 151.235 656.409 165.45C667.198 174.026 682.263 182.536 694.021 175.275C703.953 169.138 704.728 154.407 698.809 144.489C692.89 134.57 682.325 128.337 672.197 122.524C640.752 104.47 609.306 86.417 577.86 68.3659C568.213 62.8325 558.355 57.1222 551.233 48.6847C544.11 40.2522 540.156 28.4004 544.082 18.1603C547.955 8.06906 558.774 1.66121 569.719 0.323945C580.657 -1.01024 591.689 1.95393 601.921 5.96903C640.265 21.0191 730.551 119.479 754.614 136.313C770.078 147.125 786.323 160.812 787.886 179.331C789.835 202.385 766.364 221.517 742.805 223.754C719.249 225.997 696.418 215.986 675.371 205.403C654.324 194.819 632.844 183.15 609.219 181.681C585.595 180.212 559.089 192.555 553.489 215.032C548.619 234.59 561 254.772 577.127 267.287C589.751 277.085 604.566 283.61 618.876 290.947C622.85 292.978 626.782 295.079 630.617 297.324C640.436 303.084 649.614 309.827 658.003 317.446C666.809 325.431 674.714 334.316 681.582 343.948C687.063 351.624 691.845 359.754 695.873 368.245C696.487 369.542 697.083 370.857 697.661 372.19C698.209 373.465 698.739 374.756 699.242 376.06C705.811 392.97 708.37 411.921 699.978 427.707C691.609 443.451 673.48 452.773 655.377 454.066C644.906 454.676 634.413 453.321 624.463 450.074C617.146 447.752 610.063 444.776 603.303 441.186C571.962 424.745 547.149 398.673 524.489 371.871C501.834 345.071 480.5 316.853 453.605 294.103C426.71 271.348 393.008 254.144 357.435 254.406C321.864 254.662 285.194 275.845 275.091 309.177C260.365 284.378 250.408 256.107 251.722 227.465C253.037 198.823 266.858 169.924 291.506 154.374Z"
fill="#3F3D56"
/>
<path
d="M429.511 247.036C431.669 247.036 433.419 245.326 433.419 243.217C433.419 241.107 431.669 239.397 429.511 239.397C427.352 239.397 425.603 241.107 425.603 243.217C425.603 245.326 427.352 247.036 429.511 247.036Z"
fill="#6C63FF"
/>
<path
d="M282.231 252.497C285.568 252.497 288.273 249.854 288.273 246.592C288.273 243.331 285.568 240.687 282.231 240.687C278.894 240.687 276.188 243.331 276.188 246.592C276.188 249.854 278.894 252.497 282.231 252.497Z"
fill="#FF6584"
/>
<path
d="M718.949 200.246C720.182 200.246 721.182 199.269 721.182 198.064C721.182 196.859 720.182 195.882 718.949 195.882C717.716 195.882 716.717 196.859 716.717 198.064C716.717 199.269 717.716 200.246 718.949 200.246Z"
fill="#FF6584"
/>
<path
d="M673.777 82.9769C675.01 82.9769 676.01 82 676.01 80.7949C676.01 79.5899 675.01 78.613 673.777 78.613C672.544 78.613 671.545 79.5899 671.545 80.7949C671.545 82 672.544 82.9769 673.777 82.9769Z"
fill="#FF6584"
/>
<path
d="M616.333 296.029C616.966 294.24 617.82 292.534 618.876 290.947C622.85 292.978 626.782 295.079 630.617 297.324C640.436 303.084 649.614 309.827 658.003 317.446C654.627 321.93 649.717 325.083 644.165 326.331C638.613 327.579 632.787 326.841 627.745 324.249C622.703 321.658 618.779 317.385 616.685 312.207C614.591 307.029 614.466 301.289 616.333 296.029L616.333 296.029Z"
fill="#FF6584"
/>
<path
d="M331.609 225.019C332.87 225.019 333.893 224.019 333.893 222.787C333.893 221.555 332.87 220.555 331.609 220.555C330.348 220.555 329.326 221.555 329.326 222.787C329.326 224.019 330.348 225.019 331.609 225.019Z"
fill="#F0F0F0"
/>
<path
d="M611.349 59.9143C612.61 59.9143 613.632 58.9152 613.632 57.6827C613.632 56.4503 612.61 55.4512 611.349 55.4512C610.088 55.4512 609.065 56.4503 609.065 57.6827C609.065 58.9152 610.088 59.9143 611.349 59.9143Z"
fill="#F0F0F0"
/>
<path
d="M590.791 20.1648C592.052 20.1648 593.074 19.1657 593.074 17.9332C593.074 16.7008 592.052 15.7017 590.791 15.7017C589.53 15.7017 588.507 16.7008 588.507 17.9332C588.507 19.1657 589.53 20.1648 590.791 20.1648Z"
fill="#F0F0F0"
/>
<path
d="M752.467 168.333C753.728 168.333 754.75 167.334 754.75 166.102C754.75 164.869 753.728 163.87 752.467 163.87C751.206 163.87 750.184 164.869 750.184 166.102C750.184 167.334 751.206 168.333 752.467 168.333Z"
fill="#F0F0F0"
/>
<path
d="M632.531 171.539C633.792 171.539 634.814 170.54 634.814 169.308C634.814 168.075 633.792 167.076 632.531 167.076C631.27 167.076 630.248 168.075 630.248 169.308C630.248 170.54 631.27 171.539 632.531 171.539Z"
fill="#F0F0F0"
/>
<path
d="M568.886 384.386C570.147 384.386 571.169 383.387 571.169 382.154C571.169 380.922 570.147 379.923 568.886 379.923C567.625 379.923 566.603 380.922 566.603 382.154C566.603 383.387 567.625 384.386 568.886 384.386Z"
fill="#F0F0F0"
/>
<path
d="M497.137 175.057C498.398 175.057 499.42 174.058 499.42 172.826C499.42 171.593 498.398 170.594 497.137 170.594C495.876 170.594 494.854 171.593 494.854 172.826C494.854 174.058 495.876 175.057 497.137 175.057Z"
fill="#F0F0F0"
/>
<path
d="M493.932 132.861C495.193 132.861 496.215 131.861 496.215 130.629C496.215 129.397 495.193 128.398 493.932 128.398C492.671 128.398 491.648 129.397 491.648 130.629C491.648 131.861 492.671 132.861 493.932 132.861Z"
fill="#F0F0F0"
/>
<path
d="M619.098 391.646C622.862 380.996 629.163 371.373 637.48 363.571C638.578 362.544 639.708 361.551 640.868 360.593C652.367 351.087 666.583 345.275 681.582 343.948C687.063 351.624 691.845 359.754 695.873 368.245C696.487 369.542 697.083 370.857 697.661 372.19C698.209 373.465 698.739 374.756 699.243 376.06C705.811 392.97 708.37 411.921 699.979 427.707C691.609 443.451 673.48 452.773 655.377 454.066C644.906 454.676 634.413 453.322 624.463 450.074C619.074 440.732 615.907 430.323 615.195 419.621C615.105 418.274 615.061 416.925 615.048 415.571C614.989 407.428 616.359 399.336 619.098 391.646Z"
fill="#6C63FF"
/>
<path
d="M588.878 377.507C592.545 367.179 606.265 361.1 627.518 360.381C631.77 360.234 636.447 361.963 640.868 360.593C662.317 353.945 681.776 358.289 697.661 372.19C698.209 373.465 698.74 374.756 699.243 376.06C699.031 375.982 698.818 375.91 698.605 375.838C677.141 368.557 655.834 364.308 637.48 363.571C634.089 363.437 630.043 361.52 627.628 363.529C608.226 379.667 595.103 372.905 591.922 378.539C587.275 386.769 595.519 399.592 610.437 411.94C611.913 413.163 613.45 414.373 615.048 415.571C615.061 416.925 615.106 418.274 615.196 419.621C612.789 417.882 610.509 416.124 608.355 414.345C592.128 400.914 585.212 387.83 588.878 377.507Z"
fill="#E4E4E4"
/>
<path
d="M669.268 450.655C670.529 450.655 671.551 449.656 671.551 448.424C671.551 447.191 670.529 446.192 669.268 446.192C668.007 446.192 666.984 447.191 666.984 448.424C666.984 449.656 668.007 450.655 669.268 450.655Z"
fill="#F0F0F0"
/>
<path
d="M628.871 421.954C630.132 421.954 631.154 420.954 631.154 419.722C631.154 418.49 630.132 417.49 628.871 417.49C627.61 417.49 626.587 418.49 626.587 419.722C626.587 420.954 627.61 421.954 628.871 421.954Z"
fill="#F0F0F0"
/>
<path
d="M659.778 428.018C672.041 428.018 681.982 418.302 681.982 406.317C681.982 394.332 672.041 384.617 659.778 384.617C647.515 384.617 637.574 394.332 637.574 406.317C637.574 418.302 647.515 428.018 659.778 428.018Z"
fill="#F0F0F0"
/>
<path
opacity="0.3"
d="M310.927 166.417C316.117 166.655 326.852 169.174 338.485 172.431C350.111 175.691 362.721 179.668 375.171 183.602C396.964 190.483 418.757 197.362 440.548 204.239C443.544 205.183 446.548 206.135 449.56 207.096C450.714 208.57 451.861 210.059 452.987 211.563C450.339 210.649 447.681 209.764 445.03 208.92C433.706 205.323 423.879 202.951 412.888 199.679C395.974 194.647 378.131 188.04 360.825 181.886C343.521 175.728 323.667 169.099 310.927 166.417Z"
fill="#F0F0F0"
/>
<path
opacity="0.3"
d="M698.423 122.731L747.441 202.261L701.188 121.149C701.134 120.892 701.018 120.65 700.85 120.445C700.682 120.24 700.466 120.077 700.22 119.97C699.974 119.863 699.706 119.815 699.438 119.829C699.169 119.844 698.908 119.92 698.676 120.053C698.444 120.186 698.247 120.371 698.103 120.593C697.958 120.815 697.87 121.067 697.846 121.329C697.821 121.59 697.86 121.854 697.961 122.098C698.061 122.342 698.22 122.559 698.423 122.731Z"
fill="#F0F0F0"
/>
<path
d="M674.516 357.439C675.777 357.439 676.799 356.44 676.799 355.208C676.799 353.975 675.777 352.976 674.516 352.976C673.255 352.976 672.233 353.975 672.233 355.208C672.233 356.44 673.255 357.439 674.516 357.439Z"
fill="#F0F0F0"
/>
<path
d="M274.033 350.074C282.117 350.074 288.67 343.669 288.67 335.768C288.67 327.867 282.117 321.462 274.033 321.462C265.948 321.462 259.395 327.867 259.395 335.768C259.395 343.669 265.948 350.074 274.033 350.074Z"
fill="#6C63FF"
/>
<path
d="M265.361 327.913C263.885 327.519 262.515 326.813 261.349 325.845C260.183 324.877 259.247 323.671 258.609 322.312C257.971 320.952 257.646 319.473 257.657 317.978C257.667 316.482 258.013 315.007 258.669 313.656L232.165 288.154L251.067 284.212L273.338 309.034C275.587 310.263 277.296 312.255 278.143 314.633C278.989 317.011 278.913 319.61 277.93 321.937C276.946 324.264 275.124 326.158 272.807 327.259C270.491 328.361 267.841 328.593 265.361 327.913L265.361 327.913Z"
fill="#A0616A"
/>
<path
d="M138.634 129.439L153.415 138.961L170.717 142.922C170.717 142.922 184.438 238.771 191.181 244.52C197.924 250.269 192.243 250.814 194.07 258.745C195.897 266.675 200.126 282.899 200.126 282.899C159.052 307.782 122.358 310.82 91.0517 286.989C90.5629 285.419 90.638 283.732 91.2645 282.209C91.891 280.686 93.0313 279.417 94.4964 278.614C99.7897 275.401 88.3082 262.811 92.6414 260.289C96.9746 257.768 89.3175 238.908 89.3175 238.908L90.6536 198.405L86.9336 192.193L92.1741 152.315L105.683 146.447L110.309 133.047L138.634 129.439Z"
fill="#6C63FF"
/>
<path
d="M145.039 132.801L169.411 140.734C169.411 140.734 196.372 137.951 197.465 177.177C198.557 216.402 193.533 237.451 193.533 237.451C193.533 237.451 249.616 347.677 188.865 315.122L171.112 246.802L152.815 139.507L145.039 132.801Z"
fill="#2F2E41"
/>
<path
d="M169.481 219.523L182.124 217.816C182.124 217.816 183.344 236.445 189.391 239.268C195.439 242.091 193.4 242.556 194.113 245.544C194.826 248.533 188.736 256.814 193.526 258.873C198.316 260.932 240.183 312.52 240.183 312.52L264.884 290.167C263.187 285.672 255.018 289.33 254.505 284.564C253.861 277.358 240.931 257.673 238.179 255.15C235.428 252.626 236.515 248.176 235.089 242.199C233.663 236.222 234.653 241.764 232.276 231.802C229.899 221.84 197.687 171.08 196.567 161.882C195.447 152.684 182.334 147.27 182.334 147.27L172.141 149.593L169.481 219.523Z"
fill="#2F2E41"
/>
<path
d="M62.7412 550.779L77.6203 554.597L99.7716 500.322L77.8115 494.687L62.7412 550.779Z"
fill="#A0616A"
/>
<path
d="M58.1411 565.814L103.896 577.557L104.048 576.991C105.289 572.375 104.602 567.467 102.139 563.345C99.6765 559.224 95.6397 556.227 90.9166 555.015L90.9155 555.014L84.2231 546.672L66.9639 548.867L62.9697 547.842L58.1411 565.814Z"
fill="#2F2E41"
/>
<path
d="M139.018 561.658L154.4 561.657L161.719 503.663L139.014 503.665L139.018 561.658Z"
fill="#A0616A"
/>
<path
d="M138.475 577.342L185.782 577.34V576.756C185.782 571.983 183.842 567.406 180.389 564.031C176.935 560.656 172.252 558.76 167.369 558.76H167.368L158.727 552.353L142.604 558.761L138.475 558.761L138.475 577.342Z"
fill="#2F2E41"
/>
<path
d="M100.541 284.138C96.8247 288.678 98.6827 304.114 98.6827 304.114C98.6827 304.114 92.1795 354.053 94.9666 358.593C97.7537 363.133 93.1086 366.765 90.3214 373.12C87.5343 379.476 84.7473 394.912 84.7473 394.912C68.9537 407.624 69.8828 465.735 69.8828 465.735L64.3086 517.49C66.1667 522.938 92.1796 523.846 95.8957 522.938C99.6119 522.03 135.844 394.004 135.844 394.004C135.844 394.004 133.986 517.49 133.986 522.938C133.986 528.386 159.07 525.662 164.644 525.662C170.218 525.662 205.522 303.206 205.522 303.206V290.494L200.876 284.138C200.876 284.138 104.257 279.598 100.541 284.138Z"
fill="#2F2E41"
/>
<path
d="M109.36 135.484L86.5452 149.69L75.5103 158.731L90.1479 249.932C90.1479 249.932 67.9088 332.831 102.956 327.721C138.003 322.61 136.038 248.109 136.038 248.109L109.36 135.484Z"
fill="#2F2E41"
/>
<path
d="M139.887 265.039C138.57 265.801 137.099 266.271 135.576 266.418C134.053 266.564 132.516 266.382 131.073 265.884C129.63 265.387 128.316 264.587 127.224 263.539C126.132 262.492 125.288 261.223 124.751 259.823L87.5684 260.701L97.816 244.684L131.554 246.306C134.022 245.582 136.675 245.767 139.012 246.826C141.349 247.886 143.207 249.746 144.234 252.055C145.261 254.364 145.386 256.961 144.585 259.354C143.783 261.747 142.112 263.77 139.887 265.039Z"
fill="#A0616A"
/>
<path
d="M121.336 123.151C137.564 123.151 150.72 110.294 150.72 94.4329C150.72 78.5723 137.564 65.7147 121.336 65.7147C105.108 65.7147 91.9521 78.5723 91.9521 94.4329C91.9521 110.294 105.108 123.151 121.336 123.151Z"
fill="#A0616A"
/>
<path
d="M88.007 75.5631C91.3065 70.5742 97.4982 67.2493 103.501 68.1836C104.059 64.4398 105.658 60.9175 108.123 58.0002C110.588 55.083 113.825 52.8827 117.481 51.6389C121.137 50.395 125.072 50.1553 128.858 50.9459C132.644 51.7364 136.135 53.5269 138.951 56.1224C139.878 55.485 140.957 55.0922 142.084 54.982C143.211 54.8717 144.348 55.0478 145.385 55.4931C147.451 56.4112 149.249 57.8211 150.613 59.5938C154.057 63.7917 156.272 68.8238 157.022 74.1546C157.772 79.4853 157.03 84.915 154.873 89.8659C155.606 87.2595 152.934 84.8075 150.233 84.2226C147.533 83.6377 144.701 84.1911 141.963 83.8102C138.453 83.3221 135.298 81.3323 131.783 80.8844C128.829 80.5081 125.858 81.2484 122.977 81.9904C120.096 82.7324 117.133 83.489 114.174 83.1457C111.216 82.8023 107.405 93.7603 107.456 101.478C107.466 102.941 107.158 104.819 105.695 105.129C103.894 105.511 102.85 103.082 101.136 102.42C100.346 102.199 99.4988 102.286 98.7731 102.663C98.0474 103.04 97.4999 103.678 97.2459 104.442C97.0299 105.218 97.0067 106.034 97.1784 106.821C97.3501 107.608 97.7117 108.344 98.2331 108.967C99.2868 110.202 100.538 111.263 101.938 112.108L101.232 112.682C100.057 114.198 97.621 114.264 95.9282 113.326C94.3096 112.254 92.9987 110.795 92.1206 109.088C88.9888 103.997 86.2417 98.5733 85.1365 92.7321C84.0313 86.8909 84.7077 80.552 88.007 75.5631Z"
fill="#2F2E41"
/>
<path
d="M98.3815 161.413L85.1773 150.354C85.1773 150.354 69.7602 155.056 67.1461 164.941C46.5698 190.654 35.4884 220.686 32.5122 254.402C59.3756 264.318 92.2694 267.836 127.657 268.708L120.338 241.885L70.0211 232.943L98.3815 161.413Z"
fill="#2F2E41"
/>
<path
d="M51.5971 564.699L44.5436 553.621L43.1347 559.951C42.8877 561.06 42.6407 562.187 42.412 563.304C40.4085 561.632 38.2769 560.085 36.1912 558.601C29.7872 554.059 23.3863 549.511 16.9883 544.957L18.9918 556.312C20.2269 563.304 21.517 570.439 24.5724 576.832C24.911 577.557 25.2769 578.272 25.6704 578.969H55.4397C55.6791 578.322 55.8448 577.65 55.9337 576.966C55.9411 576.922 55.9441 576.877 55.9426 576.832C56.4095 572.496 53.9575 568.41 51.5971 564.699Z"
fill="#F2F2F2"
/>
<path
d="M314.681 551.972L328.025 531.014L330.69 542.99C331.158 545.088 331.625 547.219 332.058 549.333C335.848 546.17 339.881 543.244 343.826 540.436C355.942 531.843 368.051 523.238 380.155 514.623L376.365 536.105C374.029 549.333 371.588 562.832 365.807 574.926C365.167 576.297 364.475 577.65 363.73 578.969H307.411C306.958 577.744 306.645 576.473 306.477 575.18C306.462 575.096 306.457 575.011 306.46 574.926C305.577 566.722 310.215 558.992 314.681 551.972Z"
fill="#F2F2F2"
/>
<path
d="M304.212 579.416H242.938C240.146 579.413 237.469 578.328 235.495 576.398C233.52 574.469 232.41 571.852 232.407 569.124V359.025C232.41 356.296 233.52 353.68 235.495 351.751C237.469 349.821 240.146 348.735 242.938 348.732H304.212C307.004 348.735 309.681 349.821 311.655 351.751C313.63 353.68 314.74 356.296 314.743 359.025V569.124C314.74 571.852 313.63 574.469 311.655 576.398C309.681 578.328 307.004 579.413 304.212 579.416Z"
fill="#F2F2F2"
/>
<path
d="M289.744 354.097H258.322C257.272 354.096 256.266 353.688 255.524 352.963C254.782 352.237 254.364 351.254 254.363 350.228V339.19C254.364 338.164 254.782 337.181 255.524 336.455C256.266 335.73 257.272 335.322 258.322 335.321H289.744C290.793 335.322 291.799 335.73 292.541 336.455C293.283 337.181 293.701 338.164 293.702 339.19V350.228C293.701 351.254 293.283 352.237 292.541 352.963C291.799 353.688 290.793 354.096 289.744 354.097Z"
fill="#3F3D56"
/>
<path
d="M379.609 579.725L1.08908 580C0.800724 579.999 0.524473 579.887 0.320872 579.687C0.11727 579.488 0.00292969 579.217 0.00292969 578.935C0.00292969 578.654 0.11727 578.383 0.320872 578.184C0.524473 577.984 0.800724 577.872 1.08908 577.871L379.609 577.596C379.897 577.597 380.173 577.709 380.377 577.909C380.58 578.108 380.695 578.379 380.695 578.661C380.695 578.942 380.58 579.213 380.377 579.412C380.173 579.612 379.897 579.724 379.609 579.725Z"
fill="#CACACA"
/>
</g>
<defs>
    <clipPath id="clip0_14_344">
    <rect width="788" height="580" fill="white" />
    </clipPath>
</defs>
</svg>